<!-- Generated by tools/favicon.py - edit the pixel map there, not this file. -->
<svg xmlns="http://www.w3.org/2000/svg" viewBox="0 0 16 16" shape-rendering="crispEdges">
  <rect width="16" height="16" rx="3" fill="#08080e"/>
  <rect x="11" y="1" width="3" height="1" fill="#1d6b80"/>
  <rect x="2" y="2" width="9" height="1" fill="#4a4a58"/>
  <rect x="11" y="2" width="3" height="1" fill="#2a2a34"/>
  <rect x="2" y="3" width="1" height="1" fill="#f43ff0"/>
  <rect x="3" y="3" width="8" height="1" fill="#33333d"/>
  <rect x="11" y="3" width="2" height="1" fill="#1e1e26"/>
  <rect x="13" y="3" width="1" height="1" fill="#3fe4ff"/>
  <rect x="2" y="4" width="9" height="1" fill="#f43ff0"/>
  <rect x="11" y="4" width="2" height="1" fill="#1e1e26"/>
  <rect x="13" y="4" width="1" height="1" fill="#3fe4ff"/>
  <rect x="2" y="5" width="1" height="1" fill="#f43ff0"/>
  <rect x="3" y="5" width="1" height="1" fill="#33333d"/>
  <rect x="4" y="5" width="5" height="1" fill="#2b6be0"/>
  <rect x="9" y="5" width="1" height="1" fill="#9fd8ff"/>
  <rect x="10" y="5" width="1" height="1" fill="#33333d"/>
  <rect x="11" y="5" width="2" height="1" fill="#1e1e26"/>
  <rect x="13" y="5" width="1" height="1" fill="#3fe4ff"/>
  <rect x="2" y="6" width="1" height="1" fill="#f43ff0"/>
  <rect x="3" y="6" width="1" height="1" fill="#33333d"/>
  <rect x="4" y="6" width="6" height="1" fill="#2b6be0"/>
  <rect x="10" y="6" width="1" height="1" fill="#33333d"/>
  <rect x="11" y="6" width="2" height="1" fill="#1e1e26"/>
  <rect x="13" y="6" width="1" height="1" fill="#3fe4ff"/>
  <rect x="2" y="7" width="1" height="1" fill="#f43ff0"/>
  <rect x="3" y="7" width="1" height="1" fill="#33333d"/>
  <rect x="4" y="7" width="6" height="1" fill="#2b6be0"/>
  <rect x="10" y="7" width="1" height="1" fill="#33333d"/>
  <rect x="11" y="7" width="2" height="1" fill="#1e1e26"/>
  <rect x="13" y="7" width="1" height="1" fill="#3fe4ff"/>
  <rect x="2" y="8" width="1" height="1" fill="#f43ff0"/>
  <rect x="3" y="8" width="8" height="1" fill="#33333d"/>
  <rect x="11" y="8" width="2" height="1" fill="#1e1e26"/>
  <rect x="13" y="8" width="1" height="1" fill="#3fe4ff"/>
  <rect x="2" y="9" width="1" height="1" fill="#f43ff0"/>
  <rect x="3" y="9" width="1" height="1" fill="#33333d"/>
  <rect x="4" y="9" width="2" height="1" fill="#101015"/>
  <rect x="6" y="9" width="2" height="1" fill="#33333d"/>
  <rect x="8" y="9" width="2" height="1" fill="#101015"/>
  <rect x="10" y="9" width="1" height="1" fill="#33333d"/>
  <rect x="11" y="9" width="2" height="1" fill="#1e1e26"/>
  <rect x="13" y="9" width="1" height="1" fill="#3fe4ff"/>
  <rect x="2" y="10" width="1" height="1" fill="#f43ff0"/>
  <rect x="3" y="10" width="8" height="1" fill="#33333d"/>
  <rect x="11" y="10" width="2" height="1" fill="#1e1e26"/>
  <rect x="13" y="10" width="1" height="1" fill="#3fe4ff"/>
  <rect x="2" y="11" width="9" height="1" fill="#f43ff0"/>
  <rect x="11" y="11" width="2" height="1" fill="#1e1e26"/>
  <rect x="13" y="11" width="1" height="1" fill="#3fe4ff"/>
  <rect x="2" y="12" width="1" height="1" fill="#f43ff0"/>
  <rect x="3" y="12" width="8" height="1" fill="#33333d"/>
  <rect x="11" y="12" width="2" height="1" fill="#1e1e26"/>
  <rect x="13" y="12" width="1" height="1" fill="#3fe4ff"/>
  <rect x="2" y="13" width="1" height="1" fill="#f43ff0"/>
  <rect x="3" y="13" width="8" height="1" fill="#33333d"/>
  <rect x="11" y="13" width="2" height="1" fill="#1e1e26"/>
  <rect x="13" y="13" width="1" height="1" fill="#3fe4ff"/>
  <rect x="2" y="14" width="1" height="1" fill="#f43ff0"/>
  <rect x="3" y="14" width="1" height="1" fill="#33333d"/>
  <rect x="9" y="14" width="2" height="1" fill="#33333d"/>
  <rect x="11" y="14" width="2" height="1" fill="#1e1e26"/>
  <rect x="13" y="14" width="1" height="1" fill="#3fe4ff"/>
  <rect x="3" y="15" width="7" height="1" fill="#7a1f78"/>
  <rect x="12" y="15" width="1" height="1" fill="#1d6b80"/>
</svg>
